<svg id="money-bag" xmlns="http://www.w3.org/2000/svg" width="200" height="200" viewBox="0 0 200 200">
  <g id="Group_25" data-name="Group 25">
    <path id="Path_2191" data-name="Path 2191" d="M4456.13,2259.737c.937.75,8.059,28.3,8.059,28.3s-8.059,1.312-8.059,6.559,7.309,9,7.309,9l-28.3,44.6s-7.684,16.679-1.5,33.546,24.55,26.424,29.8,27.361,34.764.843,45.54,1.125,19.677-6,29.985-20.8,6.56-31.3,5.623-33.92-29.61-51.911-29.61-51.911,6.185-2.811,6.185-9-7.5-7.684-7.5-7.684l7.5-29.8-9.183-1.125-10.12,6.559-12.556-6.559-14.243,5.622-11.619-5.622Z" transform="translate(-4389 -2233)" fill="#fff98e"/>
    <g id="XMLID_1487_" transform="translate(-22.856 20)">
      <g id="XMLID_1153_" transform="translate(61.857 -0.001)">
        <path id="XMLID_1329_" d="M175.505,88.729,151.681,51.278A10.632,10.632,0,0,0,150.7,32l7.217-25.3a3.132,3.132,0,0,0-.793-3.069,12.3,12.3,0,0,0-17.413,0,6.032,6.032,0,0,1-4.3,1.786A6.037,6.037,0,0,1,131.1,3.622l-.015-.015A12.312,12.312,0,0,0,113.7,3.578l-.089.089a6.079,6.079,0,0,1-8.583-.015l-.023-.023a12.3,12.3,0,0,0-17.413,0A3.133,3.133,0,0,0,86.8,6.7L94.034,32a10.632,10.632,0,0,0-1,19.283L69.208,88.729A46.349,46.349,0,0,0,108.172,160h28.368a46.349,46.349,0,0,0,38.964-71.27ZM100.6,8.049l.023.023a12.313,12.313,0,0,0,17.385.028l.089-.089a6.081,6.081,0,0,1,8.59.023l.015.015a12.3,12.3,0,0,0,17.413,0,6.078,6.078,0,0,1,7.225-1.034l-6.91,24.227H100.3L93.375,7.014A6.077,6.077,0,0,1,100.6,8.049Zm71,124.88a39.446,39.446,0,0,1-35.061,20.821H108.173A40.1,40.1,0,0,1,74.463,92.09l25.189-39.6h8.68a3.125,3.125,0,0,0,0-6.25H97.944a4.375,4.375,0,0,1,0-8.751H146.77a4.375,4.375,0,0,1,0,8.751H136.381a3.125,3.125,0,0,0,0,6.25h8.68l25.189,39.6A39.667,39.667,0,0,1,171.6,132.929Z" transform="translate(-61.857 0.001)" fill="#271b36"/>
        <path id="XMLID_1341_" d="M228.9,265.658c-.784-.277-1.584-.566-2.384-.865V250.631a12.836,12.836,0,0,1,3.593,1.678,3.125,3.125,0,0,0,3.76-4.992,19.085,19.085,0,0,0-7.353-3.112v-3.11a3.125,3.125,0,1,0-6.25,0v3.087a16.153,16.153,0,0,0-1.61.393,12.514,12.514,0,0,0-8.579,9.815,11.035,11.035,0,0,0,3.613,10.878A30.079,30.079,0,0,0,220.271,269v18.122a12.493,12.493,0,0,1-6.851-2.511,3.125,3.125,0,1,0-3.421,5.23,18.445,18.445,0,0,0,10.272,3.534v3.231a3.125,3.125,0,0,0,6.25,0v-3.556A15.064,15.064,0,0,0,238,280.783c1.148-6.829-2.424-12.766-9.1-15.125Zm-11.352-5.308a4.87,4.87,0,0,1-1.329-4.8,6.364,6.364,0,0,1,4.048-4.924V262.07A18.7,18.7,0,0,1,217.553,260.351Zm14.287,19.4a8.959,8.959,0,0,1-5.32,6.769V271.442l.3.108A7.071,7.071,0,0,1,231.84,279.747Z" transform="translate(-162.895 -163.588)" fill="#271b36"/>
        <path id="XMLID_1343_" d="M249.11,154.219a3.126,3.126,0,1,0-2.209-.916A3.148,3.148,0,0,0,249.11,154.219Z" transform="translate(-188.61 -101.726)" fill="#271b36"/>
      </g>
    </g>
  </g>
  <rect id="Rectangle_48" data-name="Rectangle 48" width="200" height="200" fill="none"/>
</svg>
