<svg id="top-secret-folder" xmlns="http://www.w3.org/2000/svg" width="200" height="200" viewBox="0 0 200 200">
  <g id="Group_24" data-name="Group 24">
    <path id="Path_2190" data-name="Path 2190" d="M4163.828,2270.847v126.442h153.729V2290.581h-6.821v-14.374h-75.524l-2.923-5.36Z" transform="translate(-4141 -2233)" fill="#fff98e"/>
    <g id="secret" transform="translate(20 -9.665)">
      <g id="Group_20" data-name="Group 20" transform="translate(0 42.665)">
        <g id="Group_19" data-name="Group 19">
          <path id="Path_2175" data-name="Path 2175" d="M156.666,62.766h-3.332V52.717A3.343,3.343,0,0,0,150,49.366H76.09l-2.606-4.924a3.333,3.333,0,0,0-2.944-1.778H3.334A3.343,3.343,0,0,0,0,46.016v127.3a3.342,3.342,0,0,0,3.334,3.351H156.666A3.342,3.342,0,0,0,160,173.314V66.117A3.342,3.342,0,0,0,156.666,62.766Zm-10-6.7v6.7H83.182l-3.545-6.7Zm6.666,113.9H6.668V49.367h61.87l2.6,4.918c.009.016.017.033.026.049L78.235,67.69a3.332,3.332,0,0,0,2.943,1.778h72.153v100.5Z" transform="translate(0 -42.665)" fill="#271b36"/>
          <path id="Path_2176" data-name="Path 2176" d="M155.969,92.006h.079a3.334,3.334,0,1,0,0-6.668h-.079a3.334,3.334,0,1,0,0,6.668Z" transform="translate(-104.937 -72.003)" fill="#271b36"/>
          <path id="Path_2177" data-name="Path 2177" d="M74.122,88.668a3.334,3.334,0,0,0-3.334-3.334H46A3.334,3.334,0,1,0,46,92H70.788A3.334,3.334,0,0,0,74.122,88.668Z" transform="translate(-29.333 -72)" fill="#271b36"/>
          <path id="Path_2178" data-name="Path 2178" d="M142.217,311.938h0c1,0,1.566-1.066,1.566-2.3,0-1.067-.467-2.233-1.566-2.233H130.351c-1.133,0-2.267.533-2.267,1.6V330.17c0,1.068,1.133,1.6,2.267,1.6h11.866c1.1,0,1.566-1.166,1.566-2.233,0-1.233-.567-2.3-1.566-2.3h-8.933v-5.666h5c1.1,0,1.566-1.068,1.566-1.966,0-1.068-.567-2.034-1.566-2.034h-5v-5.634h8.933Z" transform="translate(-88.058 -224.167)" fill="#271b36"/>
          <path id="Path_2179" data-name="Path 2179" d="M63.718,313.161c0-1.033.966-2,3.332-2,2.733,0,3.367,1.267,4.567,1.267,1.466,0,2.066-1.832,2.066-2.733,0-2.6-4.866-2.934-6.633-2.934-4.166,0-8.533,1.9-8.533,6.9,0,7.8,10.566,7.1,10.566,11.133,0,1.6-1.7,2.2-3.233,2.2-3.1,0-4.1-2.466-5.667-2.466-1.266,0-2.266,1.665-2.266,2.8,0,2.2,3.666,4.333,8.033,4.333,4.834,0,8.334-2.6,8.334-7.4C74.283,315.861,63.718,316.495,63.718,313.161Z" transform="translate(-39.818 -223.723)" fill="#271b36"/>
          <path id="Path_2180" data-name="Path 2180" d="M174.462,191.858c0-1.1-.466-2.3-1.566-2.3H158.5c-1.1,0-1.567,1.2-1.567,2.3,0,1.266.567,2.367,1.567,2.367h4.6v18.1c0,1.066,1.3,1.6,2.6,1.6s2.6-.533,2.6-1.6v-18.1h4.6C173.9,194.225,174.462,193.125,174.462,191.858Z" transform="translate(-107.889 -143.373)" fill="#271b36"/>
          <path id="Path_2181" data-name="Path 2181" d="M399.543,312.072h4.6v18.1c0,1.068,1.3,1.6,2.6,1.6s2.6-.533,2.6-1.6v-18.1h4.6c1,0,1.566-1.1,1.566-2.367,0-1.1-.467-2.3-1.566-2.3h-14.4c-1.1,0-1.566,1.2-1.566,2.3C397.976,310.972,398.543,312.072,399.543,312.072Z" transform="translate(-273.608 -224.167)" fill="#271b36"/>
          <path id="Path_2182" data-name="Path 2182" d="M335.807,309V330.17c0,1.068,1.133,1.6,2.267,1.6H349.94c1.1,0,1.566-1.166,1.566-2.233,0-1.233-.567-2.3-1.566-2.3h-8.932v-5.666h5c1.1,0,1.566-1.068,1.566-1.966,0-1.068-.566-2.034-1.566-2.034h-5v-5.634h8.932c1,0,1.566-1.066,1.566-2.3,0-1.067-.467-2.233-1.566-2.233H338.074C336.941,307.406,335.807,307.938,335.807,309Z" transform="translate(-230.867 -224.168)" fill="#271b36"/>
          <path id="Path_2183" data-name="Path 2183" d="M302.419,213.924c1.3,0,2.6-.533,2.6-1.6v-7.2h3.3c4.6,0,8.2-2.133,8.2-7.733v-.165c0-5.6-3.466-7.667-7.866-7.667h-6.9a1.739,1.739,0,0,0-1.933,1.566v21.2C299.82,213.39,301.119,213.924,302.419,213.924Zm2.6-19.833h3.3c1.867,0,3,1.068,3,3.334v.367c0,2.267-1.133,3.333-3,3.333h-3.3Z" transform="translate(-206.126 -143.373)" fill="#271b36"/>
          <path id="Path_2184" data-name="Path 2184" d="M227.2,197.423v8.833c0,5.733,3.566,7.867,8.166,7.867s8.2-2.133,8.2-7.867v-8.833c0-5.733-3.6-7.867-8.2-7.867S227.2,191.69,227.2,197.423Zm11.166,0v8.833c0,2.3-1.133,3.332-3,3.332s-2.966-1.032-2.966-3.332v-8.833c0-2.3,1.1-3.334,2.966-3.334S238.366,195.123,238.366,197.423Z" transform="translate(-156.2 -143.371)" fill="#271b36"/>
          <path id="Path_2185" data-name="Path 2185" d="M263.936,308.969v21.2c0,1.068,1.3,1.6,2.6,1.6s2.6-.533,2.6-1.6v-8.032h2.2L275.9,331a1.778,1.778,0,0,0,1.667.967c1.533,0,3.266-1.4,3.266-2.7a1.094,1.094,0,0,0-.167-.6L276.6,321.3c2.333-.9,4.034-3.032,4.034-6.766,0-5.433-3.633-7.133-8.2-7.133h-6.9A1.552,1.552,0,0,0,263.936,308.969Zm5.2,2.967h3.3c1.866,0,3,.767,3,3.1s-1.133,3.1-3,3.1h-3.3Z" transform="translate(-181.456 -224.165)" fill="#271b36"/>
          <path id="Path_2186" data-name="Path 2186" d="M201.757,311.936c2.832,0,2.933,2.133,2.966,3,.066,1.2,1.2,1.566,2.6,1.566,1.766,0,2.6-.467,2.6-2.466,0-4.234-3.6-6.634-8.366-6.634-4.367,0-8,2.133-8,7.867V324.1c0,5.733,3.633,7.867,8,7.867,4.766,0,8.366-2.534,8.366-6.967,0-2-.833-2.467-2.633-2.467-1.333,0-2.467.333-2.567,1.568-.1,1.3-.266,3.332-2.933,3.332-1.933,0-3.033-1.066-3.033-3.332V315.27C198.757,313,199.857,311.936,201.757,311.936Z" transform="translate(-133.07 -224.165)" fill="#271b36"/>
        </g>
      </g>
    </g>
  </g>
  <rect id="Rectangle_48" data-name="Rectangle 48" width="200" height="200" fill="none"/>
</svg>
