<svg id="justice-scales" xmlns="http://www.w3.org/2000/svg" width="200" height="200" viewBox="0 0 200 200">
  <g id="Group_26" data-name="Group 26">
    <g id="Group_23" data-name="Group 23">
      <path id="Path_2192" data-name="Path 2192" d="M4732.677,2278v100.772a15.761,15.761,0,0,1-2.364,9.055,54.653,54.653,0,0,1-7.677,8.4h-10.17V2408.1h48.687v-11.876h-10.892a17.235,17.235,0,0,1-6.365-8.4c-1.641-5.315-2.69-9.055-2.69-9.055V2278Z" transform="translate(-4637 -2233)" fill="#fff98e"/>
      <circle id="Ellipse_2" data-name="Ellipse 2" cx="9" cy="9" r="9" transform="translate(91 27)" fill="#fff98e"/>
      <path id="Path_2188" data-name="Path 2188" d="M45,22.5S44.162,45,22.5,45,0,22.5,0,22.5Z" transform="translate(27 79)" fill="#fff98e"/>
      <path id="Path_2189" data-name="Path 2189" d="M45,22.5S44.162,45,22.5,45,0,22.5,0,22.5Z" transform="translate(127 79)" fill="#fff98e"/>
    </g>
    <g id="libra" transform="translate(20.947 24)">
      <g id="Group_18" data-name="Group 18" transform="translate(4.053)">
        <path id="Path_2174" data-name="Path 2174" d="M153.768,76.5,133.78,35.772H149.9a2.791,2.791,0,1,0,0-5.582H86.032V22.182a12.194,12.194,0,1,0-13.958,0v8.008H8.21a2.791,2.791,0,1,0,0,5.582H24.326L4.338,76.5a2.788,2.788,0,0,0-.285,1.23,24.752,24.752,0,0,0,49.5,0,2.788,2.788,0,0,0-.285-1.23L33.284,35.772h38.79v84.292a17.281,17.281,0,0,1-17.263,17.26,2.791,2.791,0,0,0-2.792,2.791v10.093A2.791,2.791,0,0,0,54.811,153h48.483a2.792,2.792,0,0,0,2.792-2.791V140.116a2.791,2.791,0,0,0-2.792-2.791,17.281,17.281,0,0,1-17.262-17.26V35.772h38.79L104.835,76.5a2.788,2.788,0,0,0-.285,1.23,24.752,24.752,0,0,0,49.5,0A2.788,2.788,0,0,0,153.768,76.5ZM28.8,96.895A19.194,19.194,0,0,1,9.843,80.52H47.766A19.194,19.194,0,0,1,28.8,96.895ZM46.286,74.937H11.324L28.8,39.317ZM79.053,5.582a6.61,6.61,0,1,1-6.611,6.61A6.618,6.618,0,0,1,79.053,5.582ZM100.5,142.906v4.511H57.6v-4.511Zm-12.154-5.582H69.757a22.8,22.8,0,0,0,7.9-17.26V24.3a11.885,11.885,0,0,0,2.792,0v95.761A22.8,22.8,0,0,0,88.348,137.324ZM129.3,39.317l17.481,35.62H111.82Zm0,57.577A19.194,19.194,0,0,1,110.34,80.52h37.922A19.194,19.194,0,0,1,129.3,96.895Z" transform="translate(-4.053)" fill="#271b36"/>
      </g>
    </g>
  </g>
  <rect id="Rectangle_48" data-name="Rectangle 48" width="200" height="200" fill="none"/>
</svg>
