<svg id="airbnb-pin" xmlns="http://www.w3.org/2000/svg" width="128" height="128" viewBox="0 0 128 128">
  <g id="location" transform="translate(-52 8)">
    <g id="Group_39" data-name="Group 39" transform="translate(77)">
      <path id="Path_2230" data-name="Path 2230" d="M116.155,0A39.214,39.214,0,0,0,77,39.175c-.194,19.037,9.506,31.782,19.774,45.273.883,1.16,1.791,2.354,2.695,3.554-5.8,2.513-9.169,6.293-9.169,10.447,0,3.922,2.9,7.475,8.171,10A41.878,41.878,0,0,0,116.155,112a41.881,41.881,0,0,0,17.68-3.542c5.269-2.529,8.171-6.082,8.171-10,0-4.152-3.372-7.933-9.169-10.446.894-1.186,1.792-2.367,2.666-3.514,2.509-3.295,7.485-10.039,9.737-13.255a2.188,2.188,0,1,0-3.584-2.509c-2.2,3.145-7.152,9.855-9.633,13.114-1.036,1.361-2.107,2.768-3.169,4.183l-8.069,9.352a5.441,5.441,0,0,1-9.267,0S101.3,83.172,100.258,81.8c-10.229-13.439-19.063-25.046-18.88-42.59v-.023a34.777,34.777,0,1,1,69.554,0c0,.008,0,.015,0,.023a67.083,67.083,0,0,1-3.639,19.932,2.187,2.187,0,0,0,4.112,1.493,71.226,71.226,0,0,0,3.9-21.459A39.213,39.213,0,0,0,116.155,0Zm.006,102.335c2.89-.008,5.635-1.429,7.938-4.107l5.782-6.7c4.752,1.777,7.75,4.42,7.75,6.923,0,4.338-8.82,9.172-21.477,9.172s-21.477-4.834-21.477-9.172c0-2.5,3-5.147,7.749-6.923l5.778,6.7c2.311,2.678,5.058,4.1,7.956,4.107Z" transform="translate(-77)" fill="#271b36"/>
      <path id="Path_2231" data-name="Path 2231" d="M201.873,102.06l-18.6-18.62a2.187,2.187,0,0,0-3.095,0l-18.609,18.62a2.187,2.187,0,1,0,3.094,3.093l1.389-1.389v11.5a3.713,3.713,0,0,0,3.711,3.706h23.924a3.71,3.71,0,0,0,3.705-3.706v-11.5l1.388,1.389a2.187,2.187,0,0,0,3.095-3.092Zm-8.858,12.534H179.4v-9.835a2.187,2.187,0,0,0-4.375,0v9.835h-4.6V99.386l11.3-11.3,11.293,11.3Z" transform="translate(-142.568 -64.687)" fill="#271b36"/>
      <path id="Path_2232" data-name="Path 2232" d="M268.8,168.944a2.188,2.188,0,0,0,2.187-2.187v-4.018a2.187,2.187,0,1,0-4.375,0v4.018A2.188,2.188,0,0,0,268.8,168.944Z" transform="translate(-225.14 -125.432)" fill="#271b36"/>
      <path id="Path_2233" data-name="Path 2233" d="M150.415,43.88a29.587,29.587,0,1,0,29.562,29.587A29.608,29.608,0,0,0,150.415,43.88Zm0,54.8A25.212,25.212,0,1,1,175.6,73.467,25.228,25.228,0,0,1,150.415,98.679Z" transform="translate(-111.261 -34.282)" fill="#271b36"/>
    </g>
  </g>
  <rect id="Rectangle_50" data-name="Rectangle 50" width="128" height="128" fill="none"/>
</svg>
