<svg id="condos" xmlns="http://www.w3.org/2000/svg" width="128" height="128" viewBox="0 0 128 128">
  <g id="condo" transform="translate(-14.967 7.999)">
    <g id="Group_38" data-name="Group 38" transform="translate(28.967 0.001)">
      <g id="Group_37" data-name="Group 37" transform="translate(0 0)">
        <path id="Path_2195" data-name="Path 2195" d="M88.182,179.639h3.273a2.182,2.182,0,0,0,2.182-2.182v-3.273A2.182,2.182,0,0,0,91.455,172H88.182A2.182,2.182,0,0,0,86,174.184v3.273A2.182,2.182,0,0,0,88.182,179.639Z" transform="translate(-73.555 -134.37)" fill="#271b36"/>
        <path id="Path_2196" data-name="Path 2196" d="M88.182,239.638h3.273a2.182,2.182,0,0,0,2.182-2.182v-3.274A2.182,2.182,0,0,0,91.455,232H88.182A2.182,2.182,0,0,0,86,234.182v3.274A2.182,2.182,0,0,0,88.182,239.638Z" transform="translate(-73.555 -181.241)" fill="#271b36"/>
        <path id="Path_2197" data-name="Path 2197" d="M88.182,299.638h3.273a2.182,2.182,0,0,0,2.182-2.182v-3.273A2.182,2.182,0,0,0,91.455,292H88.182A2.182,2.182,0,0,0,86,294.183v3.273A2.182,2.182,0,0,0,88.182,299.638Z" transform="translate(-73.555 -228.114)" fill="#271b36"/>
        <path id="Path_2198" data-name="Path 2198" d="M88.182,359.636h3.273a2.182,2.182,0,0,0,2.182-2.182v-3.273A2.182,2.182,0,0,0,91.455,352H88.182A2.182,2.182,0,0,0,86,354.181v3.273A2.182,2.182,0,0,0,88.182,359.636Z" transform="translate(-73.555 -274.985)" fill="#271b36"/>
        <path id="Path_2199" data-name="Path 2199" d="M140.682,179.639h3.273a2.182,2.182,0,0,0,2.182-2.182v-3.273A2.182,2.182,0,0,0,143.955,172h-3.273a2.182,2.182,0,0,0-2.182,2.182v3.273A2.182,2.182,0,0,0,140.682,179.639Z" transform="translate(-114.359 -134.37)" fill="#271b36"/>
        <path id="Path_2200" data-name="Path 2200" d="M140.682,239.638h3.273a2.182,2.182,0,0,0,2.182-2.182v-3.274A2.182,2.182,0,0,0,143.955,232h-3.273a2.182,2.182,0,0,0-2.182,2.182v3.274A2.182,2.182,0,0,0,140.682,239.638Z" transform="translate(-114.359 -181.241)" fill="#271b36"/>
        <path id="Path_2201" data-name="Path 2201" d="M140.682,299.638h3.273a2.182,2.182,0,0,0,2.182-2.182v-3.273A2.182,2.182,0,0,0,143.955,292h-3.273a2.182,2.182,0,0,0-2.182,2.182v3.273A2.182,2.182,0,0,0,140.682,299.638Z" transform="translate(-114.359 -228.114)" fill="#271b36"/>
        <path id="Path_2202" data-name="Path 2202" d="M140.682,359.636h3.273a2.182,2.182,0,0,0,2.182-2.182v-3.273A2.182,2.182,0,0,0,143.955,352h-3.273a2.182,2.182,0,0,0-2.182,2.182v3.273A2.182,2.182,0,0,0,140.682,359.636Z" transform="translate(-114.359 -274.985)" fill="#271b36"/>
        <path id="Path_2203" data-name="Path 2203" d="M193.183,179.639h3.273a2.182,2.182,0,0,0,2.182-2.182v-3.273A2.182,2.182,0,0,0,196.456,172h-3.273A2.182,2.182,0,0,0,191,174.184v3.273A2.182,2.182,0,0,0,193.183,179.639Z" transform="translate(-155.289 -134.37)" fill="#271b36"/>
        <path id="Path_2204" data-name="Path 2204" d="M193.183,239.638h3.273a2.182,2.182,0,0,0,2.182-2.182v-3.274A2.182,2.182,0,0,0,196.456,232h-3.273A2.182,2.182,0,0,0,191,234.182v3.274A2.182,2.182,0,0,0,193.183,239.638Z" transform="translate(-155.289 -181.241)" fill="#271b36"/>
        <path id="Path_2205" data-name="Path 2205" d="M193.183,299.638h3.273a2.182,2.182,0,0,0,2.182-2.182v-3.273A2.182,2.182,0,0,0,196.456,292h-3.273A2.182,2.182,0,0,0,191,294.183v3.273A2.182,2.182,0,0,0,193.183,299.638Z" transform="translate(-155.289 -228.114)" fill="#271b36"/>
        <path id="Path_2206" data-name="Path 2206" d="M193.183,359.636h3.273a2.182,2.182,0,0,0,2.182-2.182v-3.273A2.182,2.182,0,0,0,196.456,352h-3.273A2.182,2.182,0,0,0,191,354.181v3.273A2.182,2.182,0,0,0,193.183,359.636Z" transform="translate(-155.289 -274.985)" fill="#271b36"/>
        <path id="Path_2207" data-name="Path 2207" d="M288.182,179.639h3.273a2.182,2.182,0,0,0,2.182-2.182v-3.273A2.182,2.182,0,0,0,291.455,172h-3.273A2.182,2.182,0,0,0,286,174.184v3.273A2.182,2.182,0,0,0,288.182,179.639Z" transform="translate(-229.35 -134.37)" fill="#271b36"/>
        <path id="Path_2208" data-name="Path 2208" d="M288.182,119.642h3.273a2.182,2.182,0,0,0,2.182-2.182v-3.273a2.182,2.182,0,0,0-2.182-2.182h-3.273A2.182,2.182,0,0,0,286,114.187v3.273A2.182,2.182,0,0,0,288.182,119.642Z" transform="translate(-229.35 -87.5)" fill="#271b36"/>
        <path id="Path_2209" data-name="Path 2209" d="M288.182,59.641h3.273a2.182,2.182,0,0,0,2.182-2.182V54.185A2.182,2.182,0,0,0,291.455,52h-3.273A2.182,2.182,0,0,0,286,54.185v3.274A2.182,2.182,0,0,0,288.182,59.641Z" transform="translate(-229.35 -40.656)" fill="#271b36"/>
        <path id="Path_2210" data-name="Path 2210" d="M288.182,239.638h3.273a2.182,2.182,0,0,0,2.182-2.182v-3.274A2.182,2.182,0,0,0,291.455,232h-3.273A2.182,2.182,0,0,0,286,234.182v3.274A2.182,2.182,0,0,0,288.182,239.638Z" transform="translate(-229.35 -181.241)" fill="#271b36"/>
        <path id="Path_2211" data-name="Path 2211" d="M288.182,299.638h3.273a2.182,2.182,0,0,0,2.182-2.182v-3.273A2.182,2.182,0,0,0,291.455,292h-3.273A2.182,2.182,0,0,0,286,294.183v3.273A2.182,2.182,0,0,0,288.182,299.638Z" transform="translate(-229.35 -228.114)" fill="#271b36"/>
        <path id="Path_2212" data-name="Path 2212" d="M288.182,359.636h3.273a2.182,2.182,0,0,0,2.182-2.182v-3.273A2.182,2.182,0,0,0,291.455,352h-3.273A2.182,2.182,0,0,0,286,354.181v3.273A2.182,2.182,0,0,0,288.182,359.636Z" transform="translate(-229.35 -274.985)" fill="#271b36"/>
        <path id="Path_2213" data-name="Path 2213" d="M340.682,179.639h3.273a2.182,2.182,0,0,0,2.182-2.182v-3.273A2.182,2.182,0,0,0,343.955,172h-3.273a2.182,2.182,0,0,0-2.182,2.182v3.273A2.182,2.182,0,0,0,340.682,179.639Z" transform="translate(-270.279 -134.37)" fill="#271b36"/>
        <path id="Path_2214" data-name="Path 2214" d="M340.682,119.642h3.273a2.182,2.182,0,0,0,2.182-2.182v-3.273a2.182,2.182,0,0,0-2.182-2.182h-3.273a2.182,2.182,0,0,0-2.182,2.182v3.273A2.182,2.182,0,0,0,340.682,119.642Z" transform="translate(-270.279 -87.5)" fill="#271b36"/>
        <path id="Path_2215" data-name="Path 2215" d="M340.682,59.641h3.273a2.182,2.182,0,0,0,2.182-2.182V54.185A2.182,2.182,0,0,0,343.955,52h-3.273a2.182,2.182,0,0,0-2.182,2.182v3.274A2.182,2.182,0,0,0,340.682,59.641Z" transform="translate(-270.279 -40.656)" fill="#271b36"/>
        <path id="Path_2216" data-name="Path 2216" d="M340.682,239.638h3.273a2.182,2.182,0,0,0,2.182-2.182v-3.274A2.182,2.182,0,0,0,343.955,232h-3.273a2.182,2.182,0,0,0-2.182,2.182v3.274A2.182,2.182,0,0,0,340.682,239.638Z" transform="translate(-270.279 -181.241)" fill="#271b36"/>
        <path id="Path_2217" data-name="Path 2217" d="M340.682,299.638h3.273a2.182,2.182,0,0,0,2.182-2.182v-3.273A2.182,2.182,0,0,0,343.955,292h-3.273a2.182,2.182,0,0,0-2.182,2.182v3.273A2.182,2.182,0,0,0,340.682,299.638Z" transform="translate(-270.279 -228.114)" fill="#271b36"/>
        <path id="Path_2218" data-name="Path 2218" d="M340.682,359.636h3.273a2.182,2.182,0,0,0,2.182-2.182v-3.273A2.182,2.182,0,0,0,343.955,352h-3.273a2.182,2.182,0,0,0-2.182,2.182v3.273A2.182,2.182,0,0,0,340.682,359.636Z" transform="translate(-270.279 -274.985)" fill="#271b36"/>
        <path id="Path_2219" data-name="Path 2219" d="M393.182,179.639h3.273a2.182,2.182,0,0,0,2.182-2.182v-3.273A2.182,2.182,0,0,0,396.455,172h-3.273A2.182,2.182,0,0,0,391,174.184v3.273A2.182,2.182,0,0,0,393.182,179.639Z" transform="translate(-311.082 -134.37)" fill="#271b36"/>
        <path id="Path_2220" data-name="Path 2220" d="M393.182,119.642h3.273a2.182,2.182,0,0,0,2.182-2.182v-3.273a2.182,2.182,0,0,0-2.182-2.182h-3.273A2.182,2.182,0,0,0,391,114.187v3.273A2.182,2.182,0,0,0,393.182,119.642Z" transform="translate(-311.082 -87.5)" fill="#271b36"/>
        <path id="Path_2221" data-name="Path 2221" d="M393.182,59.641h3.273a2.182,2.182,0,0,0,2.182-2.182V54.185A2.182,2.182,0,0,0,396.455,52h-3.273A2.182,2.182,0,0,0,391,54.185v3.274A2.182,2.182,0,0,0,393.182,59.641Z" transform="translate(-311.082 -40.656)" fill="#271b36"/>
        <path id="Path_2222" data-name="Path 2222" d="M393.182,239.638h3.273a2.182,2.182,0,0,0,2.182-2.182v-3.274A2.182,2.182,0,0,0,396.455,232h-3.273A2.182,2.182,0,0,0,391,234.182v3.274A2.182,2.182,0,0,0,393.182,239.638Z" transform="translate(-311.082 -181.241)" fill="#271b36"/>
        <path id="Path_2223" data-name="Path 2223" d="M393.182,299.638h3.273a2.182,2.182,0,0,0,2.182-2.182v-3.273A2.182,2.182,0,0,0,396.455,292h-3.273A2.182,2.182,0,0,0,391,294.183v3.273A2.182,2.182,0,0,0,393.182,299.638Z" transform="translate(-311.082 -228.114)" fill="#271b36"/>
        <path id="Path_2224" data-name="Path 2224" d="M393.182,359.636h3.273a2.182,2.182,0,0,0,2.182-2.182v-3.273A2.182,2.182,0,0,0,396.455,352h-3.273A2.182,2.182,0,0,0,391,354.181v3.273A2.182,2.182,0,0,0,393.182,359.636Z" transform="translate(-311.082 -274.985)" fill="#271b36"/>
        <path id="Path_2229" data-name="Path 2229" d="M126.765,107.626h-1.55V2.189A2.2,2.2,0,0,0,123.013,0H78.967a2.195,2.195,0,0,0-2.2,2.187V28.877H34.921a2.195,2.195,0,0,0-2.2,2.188v76.562H31.169a2.188,2.188,0,1,0,0,4.375h95.6a2.188,2.188,0,1,0,0-4.375Zm-58.809,0h-8.81V98.877h8.81Zm8.809,0h-4.4V96.689a2.2,2.2,0,0,0-2.2-2.187H56.944a2.195,2.195,0,0,0-2.2,2.188v10.937H37.123v-4.375h4.632a2.188,2.188,0,1,0,0-4.375H37.123V33.252H76.765Zm35.237,0h-8.809V98.877H112Zm8.809,0h-4.4V96.689a2.2,2.2,0,0,0-2.2-2.187H100.99a2.2,2.2,0,0,0-2.2,2.188v10.937H81.169v-4.375H85.8a2.188,2.188,0,1,0,0-4.375H81.169V4.376H120.81Z" transform="translate(-28.967 -0.001)" fill="#271b36"/>
      </g>
    </g>
  </g>
  <rect id="Rectangle_50" data-name="Rectangle 50" width="128" height="128" fill="none"/>
</svg>
