<svg id="contract" xmlns="http://www.w3.org/2000/svg" width="128" height="128" viewBox="0 0 128 128">
  <g id="contract-2" data-name="contract" transform="translate(8 8)">
    <g id="Group_53" data-name="Group 53">
      <g id="Group_52" data-name="Group 52">
        <path id="Path_2245" data-name="Path 2245" d="M109.813,94.5h-7.875V10.938A10.95,10.95,0,0,0,91,0H10.938A10.95,10.95,0,0,0,0,10.938v8.75a2.188,2.188,0,0,0,2.188,2.188H17.5v79.188A10.95,10.95,0,0,0,28.438,112h72.625A10.95,10.95,0,0,0,112,101.063V96.688A2.188,2.188,0,0,0,109.813,94.5ZM17.5,17.5H4.375V10.938a6.563,6.563,0,0,1,13.125,0ZM35,96.688v4.375a6.563,6.563,0,0,1-13.125,0V10.938a10.851,10.851,0,0,0-2.189-6.562H91a6.57,6.57,0,0,1,6.563,6.563V94.5h-8.75V86.775A13,13,0,0,0,93.188,77a13.118,13.118,0,0,0-22.9-8.75H32.813a2.188,2.188,0,0,0,0,4.375H67.69a13.176,13.176,0,0,0-.01,8.75H32.813a2.188,2.188,0,0,0,0,4.375H69.125a2.176,2.176,0,0,0,.958-.223,13.235,13.235,0,0,0,1.229,1.248V94.5H37.188A2.188,2.188,0,0,0,35,96.688ZM80.063,85.75A8.661,8.661,0,0,1,74.82,84L74.812,84a8.741,8.741,0,1,1,5.25,1.752Zm4.375,3.628V99.421l-3.162-2.108a2.187,2.187,0,0,0-2.427,0l-3.162,2.108V89.378a13.179,13.179,0,0,0,8.75,0Zm23.188,11.685a6.57,6.57,0,0,1-6.562,6.563H37.182a10.88,10.88,0,0,0,2.193-6.562V98.875H71.313v4.633a2.188,2.188,0,0,0,3.4,1.82l5.349-3.566,5.349,3.566a2.188,2.188,0,0,0,3.4-1.82V98.875h18.813Z" fill="#271b36"/>
      </g>
    </g>
    <g id="Group_55" data-name="Group 55" transform="translate(43.698 13.173)">
      <g id="Group_54" data-name="Group 54">
        <path id="Path_2246" data-name="Path 2246" d="M225.467,60H202.2a2.2,2.2,0,0,0,0,4.391h23.272a2.2,2.2,0,1,0,0-4.391Z" transform="translate(-200 -60)" fill="#271b36"/>
      </g>
    </g>
    <g id="Group_57" data-name="Group 57" transform="translate(31.173 41.338)">
      <g id="Group_56" data-name="Group 56">
        <path id="Path_2247" data-name="Path 2247" d="M198.589,189H145.251a2.2,2.2,0,0,0,0,4.391h53.338a2.2,2.2,0,0,0,0-4.391Z" transform="translate(-143.056 -189)" fill="#271b36"/>
      </g>
    </g>
    <g id="Group_59" data-name="Group 59" transform="translate(30.504 55.117)">
      <g id="Group_58" data-name="Group 58">
        <path id="Path_2248" data-name="Path 2248" d="M196.2,252H142.2a2.2,2.2,0,0,0,0,4.391H196.2a2.2,2.2,0,0,0,0-4.391Z" transform="translate(-140 -252)" fill="#271b36"/>
      </g>
    </g>
    <g id="Group_61" data-name="Group 61" transform="translate(30.504 26.902)">
      <g id="Group_60" data-name="Group 60">
        <path id="Path_2249" data-name="Path 2249" d="M196.2,123H142.2a2.2,2.2,0,0,0,0,4.391H196.2a2.2,2.2,0,0,0,0-4.391Z" transform="translate(-140 -123)" fill="#271b36"/>
      </g>
    </g>
  </g>
  <rect id="Rectangle_50" data-name="Rectangle 50" width="128" height="128" fill="none"/>
</svg>
