<svg id="gavel" xmlns="http://www.w3.org/2000/svg" width="128" height="128" viewBox="0 0 128 128">
  <g id="surface1" transform="translate(14 14)">
    <path id="Path_2193" data-name="Path 2193" d="M55.811,389.554H2.917A2.917,2.917,0,0,1,0,386.637v-6.223a8.765,8.765,0,0,1,5.834-8.249v-3.8A8.384,8.384,0,0,1,14.208,360H44.52a8.384,8.384,0,0,1,8.374,8.374v3.8a8.765,8.765,0,0,1,5.834,8.249v6.223A2.917,2.917,0,0,1,55.811,389.554ZM44.52,365.83H14.208a2.544,2.544,0,0,0-2.541,2.54v3.294H47.06V368.37A2.543,2.543,0,0,0,44.52,365.83Zm8.374,14.585a2.92,2.92,0,0,0-2.917-2.917H8.751a2.92,2.92,0,0,0-2.918,2.917v3.306H52.894Zm0,0" transform="translate(41.272 -289.555)" fill="#271b36"/>
    <path id="Path_2194" data-name="Path 2194" d="M157.51,61.015a8.748,8.748,0,0,1-15.676-6.328,34.293,34.293,0,0,1-7.237-2.076l-27.31,36.447a8.734,8.734,0,0,1-12.255,1.736A8.831,8.831,0,0,1,93.3,78.481l27.31-36.447a34.657,34.657,0,0,1-3.985-6.412,8.72,8.72,0,0,1-8.659-1.077,8.83,8.83,0,0,1-1.728-12.313L120.277,3.5a8.748,8.748,0,0,1,15.676,6.328,34.366,34.366,0,0,1,25.2,19.061,8.7,8.7,0,0,1,8.661,1.08,8.815,8.815,0,0,1,1.728,12.313ZM124.668,46.37l-3.9,5.2,4.661,3.525,3.9-5.2A34.365,34.365,0,0,1,124.668,46.37ZM98.541,86.111a2.911,2.911,0,0,0,4.085-.578l19.3-25.756-4.661-3.525-19.3,25.755A2.944,2.944,0,0,0,98.541,86.111ZM129.023,6.449a2.911,2.911,0,0,0-4.085.579L110.9,25.759a2.942,2.942,0,0,0,.576,4.1,2.905,2.905,0,0,0,4.084-.579L129.6,10.553A2.942,2.942,0,0,0,129.023,6.449Zm4.268,8.921-12.1,16.147a28.589,28.589,0,0,0,23.3,17.628L156.594,33A28.563,28.563,0,0,0,133.291,15.37Zm33.017,19.283a2.906,2.906,0,0,0-4.084.579L148.188,53.963h0a2.944,2.944,0,0,0,.576,4.1,2.912,2.912,0,0,0,4.085-.579l14.036-18.731A2.939,2.939,0,0,0,166.308,34.653Zm0,0" transform="translate(-91.548 -0.001)" fill="#271b36"/>
  </g>
  <rect id="Rectangle_50" data-name="Rectangle 50" width="128" height="128" fill="none"/>
</svg>
