<svg id="house" xmlns="http://www.w3.org/2000/svg" width="128" height="128" viewBox="0 0 128 128">
  <g id="internet" transform="translate(8 8.374)">
    <g id="Group_41" data-name="Group 41" transform="translate(0 0.001)">
      <g id="Group_40" data-name="Group 40" transform="translate(0 0)">
        <path id="Path_2239" data-name="Path 2239" d="M109.812,107.626h-9.625V90.345a2.187,2.187,0,0,0-4.375,0v17.281H69.562V66.064a2.188,2.188,0,0,0-2.187-2.187H44.625a2.188,2.188,0,0,0-2.187,2.187v41.562H16.187V58.188h.842a2.188,2.188,0,0,0,1.547-.641L56,20.124,93.424,57.548a2.188,2.188,0,0,0,1.547.641h.842V82.016a2.187,2.187,0,1,0,4.375,0V58.188h9.625a2.187,2.187,0,0,0,1.547-3.734L57.547.642a2.188,2.188,0,0,0-3.094,0L33.89,21.2A2.188,2.188,0,1,0,36.984,24.3L56,5.282l48.531,48.531H95.877l-38.33-38.33a2.188,2.188,0,0,0-3.094,0l-38.33,38.33H7.469L29.521,31.4A2.188,2.188,0,0,0,26.427,28.3L.64,54.454a2.187,2.187,0,0,0,1.547,3.734h9.625v49.437H2.187a2.187,2.187,0,1,0,0,4.375H109.812a2.187,2.187,0,1,0,0-4.375Zm-44.625,0H46.812V68.251H65.187Z" transform="translate(0 -0.001)" fill="#271b36"/>
      </g>
    </g>
    <g id="Group_43" data-name="Group 43" transform="translate(74.418 63.942)">
      <g id="Group_42" data-name="Group 42">
        <path id="Path_2240" data-name="Path 2240" d="M354.39,292H342.181a2.18,2.18,0,0,0-2.18,2.18v21.8a2.18,2.18,0,0,0,2.18,2.18H354.39a2.18,2.18,0,0,0,2.18-2.18v-21.8A2.18,2.18,0,0,0,354.39,292Zm-2.18,21.8h-7.849V296.362h7.849Z" transform="translate(-340.001 -292.002)" fill="#271b36"/>
      </g>
    </g>
    <g id="Group_45" data-name="Group 45" transform="translate(21.012 63.942)">
      <g id="Group_44" data-name="Group 44">
        <path id="Path_2241" data-name="Path 2241" d="M110.39,292H98.181a2.18,2.18,0,0,0-2.18,2.18v21.8a2.18,2.18,0,0,0,2.18,2.18H110.39a2.18,2.18,0,0,0,2.18-2.18v-21.8A2.18,2.18,0,0,0,110.39,292Zm-2.18,21.8h-7.849V296.362h7.849Z" transform="translate(-96.001 -292.002)" fill="#271b36"/>
      </g>
    </g>
    <g id="Group_47" data-name="Group 47" transform="translate(45.971 35.973)">
      <g id="Group_46" data-name="Group 46">
        <path id="Path_2242" data-name="Path 2242" d="M220.03,164.322a10.029,10.029,0,1,0,10.029,10.029A10.04,10.04,0,0,0,220.03,164.322Zm0,15.7a5.668,5.668,0,1,1,5.668-5.668A5.675,5.675,0,0,1,220.03,180.019Z" transform="translate(-210.001 -164.322)" fill="#271b36"/>
      </g>
    </g>
    <g id="Group_49" data-name="Group 49" transform="translate(49.663 85.763)">
      <g id="Group_48" data-name="Group 48">
        <path id="Path_2243" data-name="Path 2243" d="M230.722,392.641a2.179,2.179,0,1,0,.639,1.541A2.2,2.2,0,0,0,230.722,392.641Z" transform="translate(-227.001 -392.002)" fill="#271b36"/>
      </g>
    </g>
  </g>
  <rect id="Rectangle_50" data-name="Rectangle 50" width="128" height="128" fill="none"/>
</svg>
