<svg id="wrench" xmlns="http://www.w3.org/2000/svg" width="128" height="128" viewBox="0 0 128 128">
  <g id="repair" transform="translate(7.5 8.001)">
    <path id="Path_2236" data-name="Path 2236" d="M109.782,13.457a2.186,2.186,0,0,0-2.047.59l-9.069,9.141H94.318l-4.786-4.959V13.82L98.47,4.748a2.188,2.188,0,0,0-.86-3.608,21.892,21.892,0,0,0-28.12,26.4L53.377,43.655,26.531,16.749V11.468a2.187,2.187,0,0,0-1.062-1.876L10,.311A2.186,2.186,0,0,0,7.329.64L1.142,6.826A2.189,2.189,0,0,0,.813,9.5l9.28,15.467a2.188,2.188,0,0,0,1.875,1.062l5.279,0L44.1,52.936,28.043,68.988a21.889,21.889,0,0,0-26.4,28.12,2.188,2.188,0,0,0,3.626.843l9.068-9.14h4.372l4.981,4.981v4.372l-9.14,9.068a2.188,2.188,0,0,0,.843,3.626,21.881,21.881,0,0,0,24.74-7.969,21.63,21.63,0,0,0,3.38-18.433L56.4,71.562l2.953,3.208L58,76.124a2.188,2.188,0,1,0,3.094,3.094l1.227-1.227,27.709,30.1c.021.022.042.044.063.065A13.126,13.126,0,0,0,108.657,89.59c-.022-.022-.045-.044-.068-.065L78.444,61.871l1.213-1.213a2.188,2.188,0,0,0-3.094-3.093l-1.346,1.347L72,55.961,84.958,43.007a21.887,21.887,0,0,0,26.4-28.118,2.185,2.185,0,0,0-1.577-1.432ZM19.7,22.3a2.165,2.165,0,0,0-1.548-.62l-4.948,0L5.444,8.713,9.215,4.942l12.941,7.766v4.948A2.187,2.187,0,0,0,22.8,19.2l27.488,27.55-3.094,3.093Zm55.644,42.67,30.248,27.748A8.751,8.751,0,0,1,93.217,105.09l-27.8-30.2Zm-3.227-2.961-9.669,9.667L59.5,68.466l9.408-9.409Zm18.5-22.633a17.483,17.483,0,0,1-5.591-.912,2.191,2.191,0,0,0-2.245.526l-43.3,43.3a2.187,2.187,0,0,0-.526,2.246,17.517,17.517,0,0,1-16.589,23.09,17.917,17.917,0,0,1-1.907-.1l6.948-6.894a2.187,2.187,0,0,0,.647-1.553V92.884a2.187,2.187,0,0,0-.641-1.547l-6.263-6.263a2.187,2.187,0,0,0-1.547-.641H13.424a2.19,2.19,0,0,0-1.554.647L4.977,92.029a17.7,17.7,0,0,1-.1-1.907A17.518,17.518,0,0,1,27.966,73.534a2.186,2.186,0,0,0,2.245-.526l43.3-43.3a2.187,2.187,0,0,0,.526-2.245A17.516,17.516,0,0,1,90.624,4.374a17.878,17.878,0,0,1,1.965.109l-6.8,6.905a2.186,2.186,0,0,0-.629,1.535v6.188a2.185,2.185,0,0,0,.614,1.519l6.044,6.263a2.186,2.186,0,0,0,1.574.668h6.188a2.186,2.186,0,0,0,1.553-.647l6.893-6.947a17.7,17.7,0,0,1,.1,1.907,17.519,17.519,0,0,1-17.5,17.5Zm0,0" transform="translate(0 0)" fill="#271b36"/>
    <path id="Path_2237" data-name="Path 2237" d="M211.92,184.066l-27.355,27.355a2.186,2.186,0,0,0,3.092,3.091l27.355-27.355a2.186,2.186,0,0,0-3.092-3.091Zm0,0" transform="translate(-143.288 -143.291)" fill="#271b36"/>
    <path id="Path_2238" data-name="Path 2238" d="M365.626,368.447a2.186,2.186,0,1,0,3.087-3.1l-19.7-19.641a2.186,2.186,0,0,0-3.087,3.1Zm0,0" transform="translate(-269.331 -269.564)" fill="#271b36"/>
  </g>
  <rect id="Rectangle_50" data-name="Rectangle 50" width="128" height="128" fill="none"/>
</svg>
